HIERARCHY
ROOT root
{
  OFFSET 0 93.2929 0
  CHANNELS 6 Xposition Yposition Zposition Zrotation Xrotation Yrotation
  JOINT torso_1
  {
    OFFSET 0 5.07867 -1.15138
    CHANNELS 6 Xposition Yposition Zposition Zrotation Xrotation Yrotation
    JOINT torso_2
    {
      OFFSET 0 5.61661 1.07143
      CHANNELS 6 Xposition Yposition Zposition Zrotation Xrotation Yrotation
      JOINT torso_3
      {
        OFFSET -1.02604e-17 5.98978 0.11501
        CHANNELS 6 Xposition Yposition Zposition Zrotation Xrotation Yrotation
        JOINT torso_4
        {
          OFFSET -1.10457e-17 6.50583 -0.443523
          CHANNELS 6 Xposition Yposition Zposition Zrotation Xrotation Yrotation
          JOINT torso_5
          {
            OFFSET -1.97295e-17 7.60548 -1.50593
            CHANNELS 6 Xposition Yposition Zposition Zrotation Xrotation Yrotation
            JOINT torso_6
            {
              OFFSET -2.53307e-17 9.49737 -0.914492
              CHANNELS 6 Xposition Yposition Zposition Zrotation Xrotation Yrotation
              JOINT torso_7
              {
                OFFSET -2.90401e-17 10.5513 1.57691
                CHANNELS 6 Xposition Yposition Zposition Zrotation Xrotation Yrotation
                JOINT neck_1
                {
                  OFFSET -1.29193e-17 4.78644 0.715339
                  CHANNELS 6 Xposition Yposition Zposition Zrotation Xrotation Yrotation
                  JOINT neck_2
                  {
                    OFFSET -1.8116e-17 4.82109 0.421791
                    CHANNELS 6 Xposition Yposition Zposition Zrotation Xrotation Yrotation
                    JOINT head
                    {
                      OFFSET -2.00958e-17 4.83041 0.765062
                      CHANNELS 6 Xposition Yposition Zposition Zrotation Xrotation Yrotation
                      End Site
                      {
                        OFFSET 0 0.1 0
                      }
                    }
                  }
                }
                JOINT l_shoulder
                {
                  OFFSET 1.23299 -7.60731 7.53374
                  CHANNELS 6 Xposition Yposition Zposition Zrotation Xrotation Yrotation
                  JOINT l_up_arm
                  {
                    OFFSET 12.9547 3.2495 -3.26872
                    CHANNELS 6 Xposition Yposition Zposition Zrotation Xrotation Yrotation
                    JOINT l_low_arm
                    {
                      OFFSET 29.2081 0.0598081 0.137039
                      CHANNELS 6 Xposition Yposition Zposition Zrotation Xrotation Yrotation
                      JOINT l_hand
                      {
                        OFFSET 24.234 0.0496219 0.113701
                        CHANNELS 6 Xposition Yposition Zposition Zrotation Xrotation Yrotation
                        End Site
                        {
                          OFFSET 0.1 0 0
                        }
                      }
                    }
                  }
                }
                JOINT r_shoulder
                {
                  OFFSET -1.23299 -7.60729 7.53365
                  CHANNELS 6 Xposition Yposition Zposition Zrotation Xrotation Yrotation
                  JOINT r_up_arm
                  {
                    OFFSET -12.9547 3.2495 -3.26872
                    CHANNELS 6 Xposition Yposition Zposition Zrotation Xrotation Yrotation
                    JOINT r_low_arm
                    {
                      OFFSET -29.2081 0.0598081 0.137039
                      CHANNELS 6 Xposition Yposition Zposition Zrotation Xrotation Yrotation
                      JOINT r_hand
                      {
                        OFFSET -24.234 0.0496218 0.113702
                        CHANNELS 6 Xposition Yposition Zposition Zrotation Xrotation Yrotation
                        End Site
                        {
                          OFFSET -0.1 0 0
                        }
                      }
                    }
                  }
                }
              }
            }
          }
        }
      }
    }
  }
  JOINT l_up_leg
  {
    OFFSET 9.23673 -4.20556 2.0327
    CHANNELS 6 Xposition Yposition Zposition Zrotation Xrotation Yrotation
    JOINT l_low_leg
    {
      OFFSET -0.852353 -38.7721 -0.655187
      CHANNELS 6 Xposition Yposition Zposition Zrotation Xrotation Yrotation
      JOINT l_foot
      {
        OFFSET -2.32622 -40.4017 -6.04875
        CHANNELS 6 Xposition Yposition Zposition Zrotation Xrotation Yrotation
        JOINT l_toes
        {
          OFFSET 0.779096 -9.8844 12.4959
          CHANNELS 6 Xposition Yposition Zposition Zrotation Xrotation Yrotation
          End Site
          {
            OFFSET 0 0 0.1
          }
        }
      }
    }
  }
  JOINT r_up_leg
  {
    OFFSET -9.23673 -4.20556 2.0327
    CHANNELS 6 Xposition Yposition Zposition Zrotation Xrotation Yrotation
    JOINT r_low_leg
    {
      OFFSET 0.852353 -38.7721 -0.655187
      CHANNELS 6 Xposition Yposition Zposition Zrotation Xrotation Yrotation
      JOINT r_foot
      {
        OFFSET 2.32622 -40.4017 -6.04875
        CHANNELS 6 Xposition Yposition Zposition Zrotation Xrotation Yrotation
        JOINT r_toes
        {
          OFFSET -0.779096 -9.8844 12.4959
          CHANNELS 6 Xposition Yposition Zposition Zrotation Xrotation Yrotation
          End Site
          {
            OFFSET 0 0 0.1
          }
        }
      }
    }
  }
}
MOTION
Frames: 5
Frame Time: 0.016667
0 93.2929 0 -0 0 -0 0 5.07867 -1.15138 -0 0 -0 0 5.61661 1.07143 -0 0 -0 -1.02604e-17 5.98978 0.11501 -0 0 -0 -1.10457e-17 6.50583 -0.443523 -0 0 -0 -1.97295e-17 7.60548 -1.50593 -0 0 -0 -2.53307e-17 9.49737 -0.914492 -0 0 -0 -2.90401e-17 10.5513 1.57691 -0 0 -0 -1.29193e-17 4.78644 0.715339 -0 0 -0 -1.8116e-17 4.82109 0.421791 -0 0 -0 -2.00958e-17 4.83041 0.765062 -0 0 -0 1.23299 -7.60731 7.53374 -0 0 -0 12.9547 3.2495 -3.26872 -0 0 -0 29.2081 0.0598081 0.137039 -0 0 -0 24.234 0.0496219 0.113701 -0 0 -0 -1.23299 -7.60729 7.53365 -0 0 -0 -12.9547 3.2495 -3.26872 -0 0 -0 -29.2081 0.0598081 0.137039 -0 0 -0 -24.234 0.0496218 0.113702 -0 0 -0 9.23673 -4.20556 2.0327 -0 0 -0 -0.852353 -38.7721 -0.655187 -0 0 -0 -2.32622 -40.4017 -6.04875 -0 0 -0 0.779096 -9.8844 12.4959 -0 0 -0 -9.23673 -4.20556 2.0327 -0 0 -0 0.852353 -38.7721 -0.655187 -0 0 -0 2.32622 -40.4017 -6.04875 -0 0 -0 -0.779096 -9.8844 12.4959 -0 0 -0 
-7.0775 92.3143 38.6214 8.36346 -4.85722 -0.999783 0 5.07867 -1.15138 -2.50834 4.47048 0.726135 0 5.61661 1.07143 -2.05568 3.4011 0.507076 -1.02604e-17 5.98978 0.11501 -1.67034 2.73795 0.546369 -1.10457e-17 6.50583 -0.443523 -1.18029 1.17348 0.479785 -1.97295e-17 7.60548 -1.50593 -0.579273 0.305058 0.550841 -2.53307e-17 9.49737 -0.914492 0.114036 -1.25056 0.389199 -2.90401e-17 10.5513 1.57691 0.00623636 0.67177 -0.263606 -1.29193e-17 4.78644 0.715339 0.833598 11.05 -0.0198957 -1.8116e-17 4.82109 0.421791 0.29478 -6.06675 -0.185283 -2.00958e-17 4.83041 0.765062 -2.40918 -10.9525 2.59648 1.23299 -7.60731 7.53374 17.6184 3.27499 2.50443 12.9547 3.2495 -3.26872 -96.2955 27.2717 5.71325 29.2081 0.0598081 0.137039 4.94208 -1.04738 -24.5105 24.234 0.0496219 0.113701 -5.31572 -27.9149 -3.45256 -1.23299 -7.60729 7.53365 -24.4366 2.69581 -5.99163 -12.9547 3.2495 -3.26872 99.5799 31.5614 -2.20122 -29.2081 0.0598081 0.137039 -4.92554 -1.03987 24.4221 -24.234 0.0496218 0.113702 4.31634 -33.1982 -2.13429 9.23673 -4.20556 2.0327 -0.647518 -4.58432 -11.4597 -0.852353 -38.7721 -0.655187 -4.16603 15.3042 0.291049 -2.32622 -40.4017 -6.04875 -3.78537 1.45808 16.2584 0.779096 -9.8844 12.4959 -7.63608e-16 -8.29044e-16 4.63291e-17 -9.23673 -4.20556 2.0327 -8.97368 -7.77508 28.1136 0.852353 -38.7721 -0.655187 2.96729 11.005 -0.0931832 2.32622 -40.4017 -6.04875 -1.5351 -4.96836 -15.4299 -0.779096 -9.8844 12.4959 -8.99543e-16 -5.46449e-16 -1.27344e-14 
-6.97773 92.0483 38.7547 7.76232 -4.76328 -1.12672 0 5.07867 -1.15138 -2.26715 4.6317 0.598666 0 5.61661 1.07143 -1.8267 3.49156 0.398282 -1.02604e-17 5.98978 0.11501 -1.48444 2.73795 0.434544 -1.10457e-17 6.50583 -0.443523 -1.0344 1.03181 0.365402 -1.97295e-17 7.60548 -1.50593 -0.499879 0.103111 0.410805 -2.53307e-17 9.49737 -0.914492 0.107563 -1.50268 0.251483 -2.90401e-17 10.5513 1.57691 0.00468354 0.695783 -0.261178 -1.29193e-17 4.78644 0.715339 0.901986 11.0809 0.246617 -1.8116e-17 4.82109 0.421791 0.216068 -5.98221 -0.0581679 -2.00958e-17 4.83041 0.765062 -2.37386 -10.8268 2.92683 1.23299 -7.60731 7.53374 17.1534 3.34781 2.40674 12.9547 3.2495 -3.26872 -95.9417 27.4606 6.16001 29.2081 0.0598081 0.137039 5.07542 -1.10832 -25.2146 24.234 0.0496219 0.113701 -5.53421 -28.4476 -3.47034 -1.23299 -7.60729 7.53365 -24.7353 2.76859 -5.93742 -12.9547 3.2495 -3.26872 100.011 31.1047 -2.42501 -29.2081 0.0598081 0.137039 -4.92865 -1.04126 24.4385 -24.234 0.0496218 0.113702 3.76466 -32.3747 -2.40234 9.23673 -4.20556 2.0327 -0.302604 -4.20508 -11.3323 -0.852353 -38.7721 -0.655187 -4.12062 15.1439 0.281925 -2.32622 -40.4017 -6.04875 -3.27633 0.0483989 16.1946 0.779096 -9.8844 12.4959 3.21354e-16 -7.85873e-16 3.15822e-18 -9.23673 -4.20556 2.0327 -8.24434 -8.19549 28.2635 0.852353 -38.7721 -0.655187 3.16924 11.7383 -0.120196 2.32622 -40.4017 -6.04875 -1.85822 -5.63016 -15.4626 -0.779096 -9.8844 12.4959 -1.688e-15 -5.15702e-16 -1.27005e-14 
-6.74613 91.8419 38.815 7.36401 -4.60346 -0.844323 0 5.07867 -1.15138 -2.06317 4.74144 0.441322 0 5.61661 1.07143 -1.62404 3.5515 0.253299 -1.02604e-17 5.98978 0.11501 -1.31635 2.7318 0.287756 -1.10457e-17 6.50583 -0.443523 -0.897288 0.928065 0.217278 -1.97295e-17 7.60548 -1.50593 -0.429254 -0.0422226 0.239057 -2.53307e-17 9.49737 -0.914492 0.0895792 -1.68403 0.0843057 -2.90401e-17 10.5513 1.57691 0.00217176 0.715732 -0.259001 -1.29193e-17 4.78644 0.715339 0.965201 11.153 0.42395 -1.8116e-17 4.82109 0.421791 0.128786 -5.96553 0.0256244 -2.00958e-17 4.83041 0.765062 -2.31782 -10.8016 3.14142 1.23299 -7.60731 7.53374 16.7068 3.38718 2.31775 12.9547 3.2495 -3.26872 -95.5413 27.785 6.27215 29.2081 0.0598081 0.137039 5.13665 -1.13697 -25.5392 24.234 0.0496219 0.113701 -5.80872 -29.032 -3.43772 -1.23299 -7.60729 7.53365 -24.9138 2.77538 -5.78604 -12.9547 3.2495 -3.26872 100.223 30.5842 -2.50516 -29.2081 0.0598081 0.137039 -4.87993 -1.01956 24.1823 -24.234 0.0496218 0.113702 3.33276 -31.978 -2.32206 9.23673 -4.20556 2.0327 -0.333014 -3.99487 -12.3411 -0.852353 -38.7721 -0.655187 -4.03646 14.8462 0.265352 -2.32622 -40.4017 -6.04875 -2.93736 -1.11348 16.1481 0.779096 -9.8844 12.4959 2.48481e-17 -7.95139e-16 1.2424e-17 -9.23673 -4.20556 2.0327 -7.8916 -8.63758 28.1461 0.852353 -38.7721 -0.655187 3.36483 12.4453 -0.14882 2.32622 -40.4017 -6.04875 -1.94238 -6.19372 -15.5056 -0.779096 -9.8844 12.4959 -1.29043e-15 -5.37392e-16 -1.2713e-14 
-6.38359 91.7299 38.7079 7.27735 -4.55009 -0.0797615 0 5.07867 -1.15138 -1.93059 4.79479 0.262864 0 5.61661 1.07143 -1.4765 3.58995 0.0782284 -1.02604e-17 5.98978 0.11501 -1.1871 2.74797 0.11116 -1.10457e-17 6.50583 -0.443523 -0.782849 0.919684 0.0411451 -1.97295e-17 7.60548 -1.50593 -0.371844 -0.0673182 0.0437317 -2.53307e-17 9.49737 -0.914492 0.0647313 -1.71729 -0.106966 -2.90401e-17 10.5513 1.57691 0.000129344 0.726999 -0.260528 -1.29193e-17 4.78644 0.715339 1.04795 11.3729 0.347116 -1.8116e-17 4.82109 0.421791 0.0495922 -6.11064 -0.00679597 -2.00958e-17 4.83041 0.765062 -2.28752 -10.9545 3.39822 1.23299 -7.60731 7.53374 16.2676 3.34128 2.2475 12.9547 3.2495 -3.26872 -95.0565 28.4293 5.89421 29.2081 0.0598081 0.137039 5.0991 -1.11935 -25.34 24.234 0.0496219 0.113701 -6.10223 -29.8124 -3.40072 -1.23299 -7.60729 7.53365 -25.0714 2.65609 -5.59223 -12.9547 3.2495 -3.26872 100.336 29.966 -2.39104 -29.2081 0.0598081 0.137039 -4.79685 -0.983146 23.7465 -24.234 0.0496218 0.113702 2.94373 -32.0013 -2.13223 9.23673 -4.20556 2.0327 -0.824964 -3.92349 -14.2494 -0.852353 -38.7721 -0.655187 -3.91915 14.4301 0.242979 -2.32622 -40.4017 -6.04875 -2.93319 -1.37755 16.1263 0.779096 -9.8844 12.4959 1.25906e-16 -7.91981e-16 9.26597e-18 -9.23673 -4.20556 2.0327 -8.03735 -8.99235 27.6555 0.852353 -38.7721 -0.655187 3.55186 13.1182 -0.178445 2.32622 -40.4017 -6.04875 -1.83821 -6.47765 -15.5441 -0.779096 -9.8844 12.4959 -9.93923e-16 -5.46658e-16 -1.27222e-14 
